<svg viewBox="0 0 32 32" xmlns="http://www.w3.org/2000/svg"><g fill="none" fill-rule="evenodd"><path d="M28.004 11.004c0-.556.452-1 1.01-1h1.98a1 1 0 1 1 0 2h-1.98a1 1 0 0 1-1.01-1ZM21 4c-.556 0-1-.452-1-1.01V1.01a1 1 0 1 1 2 0v1.98A1 1 0 0 1 21 4Zm7.78-.777a1.002 1.002 0 0 1-.006 1.42l-1.4 1.402a1 1 0 1 1-1.415-1.414L27.36 3.23a1 1 0 0 1 1.42-.007ZM21 17a6 6 0 1 1 0-12 6 6 0 0 1 0 12Zm0 0" fill="#FAFF00" class="fill-faff00"></path><path d="M0 19a6.003 6.003 0 0 1 3.002-5.197 9 9 0 0 1 16.653-4.538 6.502 6.502 0 0 1 7.93 3.946A6.003 6.003 0 0 1 32 19c0 3.307-2.686 6-6 6H6a6 6 0 0 1-6-6Zm0 0" fill="#7fbaeb" class="fill-c6c6c6"></path></g></svg>